<svg version="1.1" id="Layer_1" xmlns="http://www.w3.org/2000/svg" xmlns:xlink="http://www.w3.org/1999/xlink" x="0px" y="0px" viewBox="0 0 194.828 55" enable-background="new 0 0 194.828 55" xml:space="preserve"><g><path d="M98.152,9.356c0.013,0,0.017,0,0.023,0c1.717,0.755,2.844,0.365,4.253-0.711c0.802-0.604,1.718-1.295,2.063-2.283&#10;&#9;&#9;c0.579-1.662-1.157-4.266-2.547-5.145c-0.772-0.484-1.72-0.66-2.595-0.855c-2.554-0.56-4.477,0.622-4.997,3.203&#10;&#9;&#9;c-0.189,0.924-0.202,2.245,0.38,2.967C95.646,7.658,96.82,8.758,98.152,9.356"/><path d="M34.289,34.296c-0.256-1.807-1.038-3.7-1.597-5.385c-0.631-1.9-1.612-3.668-2.876-5.226&#10;&#9;&#9;c-1.199-1.486-2.841-3.316-4.744-3.838c-3.454-0.955-6.867-2.521-10.534-1.982c-2.143,0.321-4.33,1.095-6.106,2.348&#10;&#9;&#9;c-1.507,1.067-2.749,2.615-3.91,4.038c-1.676,2.069-2.572,4.182-3.377,6.691c-0.541,1.681-1.189,3.403-1.142,5.203&#10;&#9;&#9;c0.037,1.396,0.585,2.729,0.99,4.05c0.433,1.391,0.873,2.78,1.463,4.12c0.925,2.094,2.119,4.944,3.931,6.429&#10;&#9;&#9;c1.512,1.245,3.631,2.58,5.461,3.309c2.059,0.825,4.814,0.315,7.002,0.409c2.274,0.101,4.625-0.183,6.704-1.17&#10;&#9;&#9;c1.944-0.931,3.427-2.572,4.644-4.308c1.213-1.718,2.435-3.468,3.317-5.379c0.826-1.787,0.953-3.636,0.901-5.572&#10;&#9;&#9;c-0.034-1.064,0.016-2.127-0.069-3.197C34.334,34.66,34.311,34.477,34.289,34.296 M9.802,33.949&#10;&#9;&#9;c0.037-0.441,0.093-0.874,0.16-1.303c0.334-2.044,1.339-3.969,3.001-5.233c1.457-1.101,2.815-2.321,4.77-1.855&#10;&#9;&#9;c1.8,0.429,3.429,1.843,4.522,3.283c1.082,1.415,0.95,3.283,1.326,4.936c0.959,4.247,0.283,8.507-2.442,11.978&#10;&#9;&#9;c-1.686,2.134-4.044,2.403-6.265,0.88c-2.16-1.49-3.764-3.911-4.507-6.402C9.781,38.244,9.61,36.043,9.802,33.949"/><path d="M77.986,47.453c-2.517-1.22-1.899-3.063-1.788-5.385c0.061-1.157-0.256-2.289-0.26-3.445&#10;&#9;&#9;c-0.012-3.372,1.004-6.682,0.743-10.07c-0.225-2.925-1.891-5.254-4.036-7.159c-1.401-1.245-2.845-2.516-4.569-3.296&#10;&#9;&#9;c-1.259-0.566-2.719-0.196-4.002,0.068c-1.597,0.321-3.197,0.612-4.688,1.291c-0.966,0.439-1.916,0.906-2.81,1.453&#10;&#9;&#9;c-0.043-0.07-0.05-0.132-0.06-0.216c-0.979-0.868-2.677-3.067-4.165-2.597c-0.655,0.2-1.231,0.521-1.914,0.685&#10;&#9;&#9;c-1.341,0.321-2.454,0.901-3.57,1.694c-1.035,0.729-2.343,0.992-3,2.195c-0.607,1.1-0.792,2.78,0.148,3.648&#10;&#9;&#9;c1.27,1.183,2.481,2.428,2.632,4.245c0.1,1.209-0.202,2.384-0.25,3.58c-0.051,1.237,0.095,2.473,0.113,3.704&#10;&#9;&#9;c0.019,1.334,0.019,2.741,0.021,4.101c0.008,1.265,0.229,2.719-0.167,3.939c-0.402,1.275-1.402,2.27-2.094,3.384&#10;&#9;&#9;c-0.604,0.962-0.862,2.622-0.107,3.598c0.67,0.854,2.226,1.138,3.215,1.356c2.775,0.617,5.431-0.363,8.195-0.609&#10;&#9;&#9;c1.189-0.107,2.651-0.34,3.504-1.264c1.022-1.106,0.922-2.987,0.087-4.182c-0.509-0.736-1.467-0.712-2.238-0.938&#10;&#9;&#9;c-1.081-0.327-1.238-0.881-1.399-1.938c-0.217-1.417-0.575-2.813-0.503-4.253c0.043-0.942-0.072-1.898,0.04-2.835&#10;&#9;&#9;c0.29-2.391,0.426-4.555,0.239-6.983c-0.134-1.723,0.875-2.275,2.093-3.2c0.887-0.673,1.472-1.63,2.635-1.856&#10;&#9;&#9;c1.806-0.365,3.792,0.724,4.91,2.075c1.278,1.542,1.047,4.209,1.303,6.095c0.168,1.208,0.174,2.486,0.057,3.694&#10;&#9;&#9;c-0.114,1.256-0.423,2.421-0.333,3.695c0.067,0.964,0.154,1.901,0.117,2.87c-0.026,0.769,0.044,1.705-0.389,2.377&#10;&#9;&#9;c-0.492,0.755-1.307,0.561-2.081,0.763c-0.761,0.195-0.882,0.559-1.208,1.233c-0.869,1.797-0.047,3.509,1.648,4.539&#10;&#9;&#9;c1.349,0.819,2.839,0.253,4.302,0.246c1.464-0.007,3.056-0.276,4.496-0.095c2.112,0.264,5.005,0.876,5.954-1.724&#10;&#9;&#9;c0.327-0.88,0.819-2.435,0.431-3.358C79.003,48.031,78.52,47.719,77.986,47.453"/><path d="M103.378,46.851c-0.326-0.391-0.598-0.793-0.722-1.221c-0.42-1.422-0.536-2.996-0.706-4.459&#10;&#9;&#9;c-0.23-1.913-0.23-3.851-0.099-5.775c0.094-1.326,0.352-2.642,0.473-3.968c0.157-1.674-0.076-3.354,0.01-5.039&#10;&#9;&#9;c0.072-1.51,0.594-3.101-0.124-4.535c-0.721-1.434-2.438-1.415-3.814-1.264c-0.727,0.082-1.442,0.233-2.166,0.294&#10;&#9;&#9;c-0.867,0.076-1.792-0.043-2.583,0.392c-0.869,0.478-1.062,1.608-1.992,2.042c-1.038,0.479-2.08,0.561-2.765,1.585&#10;&#9;&#9;c-0.734,1.102-0.799,2.34-0.491,3.599c0.368,1.483,2.312,1.597,3.152,2.704c0.906,1.208,0.896,2.844,1.072,4.271&#10;&#9;&#9;c0.173,1.504-0.082,2.996-0.18,4.486c-0.104,1.483,0.279,3,0.061,4.473c-0.254,1.69-1.208,3.067-2.906,3.559&#10;&#9;&#9;c-1.229,0.352-1.661,1.05-1.651,2.334c0.019,1.899,1.18,4.02,3.093,4.549c2.016,0.557,3.74-0.939,5.678-1.128&#10;&#9;&#9;c2.681-0.264,5.755,1.41,8.152-0.434c0.638-0.497,1.072-1.327,1.285-2.095C106.638,49.466,104.576,48.246,103.378,46.851"/><path d="M149.771,34.296c-0.716-3.877-2.396-8.053-4.917-11.11c-0.688-0.822-1.499-1.61-2.372-2.226&#10;&#9;&#9;c-1.806-1.308-3.806-2.013-5.977-2.491c-1.721-0.377-3.489-0.642-5.263-0.585c-1.037,0.038-2.081,0.188-3.081,0.453&#10;&#9;&#9;c-0.99,0.259-1.957,0.604-2.888,1.007c-2.429,1.063-3.876,3.403-5.467,5.39c-2.146,2.681-3.439,5.914-3.988,9.286&#10;&#9;&#9;c-0.181,1.088-0.232,2.194-0.094,3.288c0.238,1.926,0.992,3.731,1.609,5.549c1.145,3.326,2.391,6.454,5.365,8.542&#10;&#9;&#9;c1.643,1.151,3.272,2.358,5.272,2.768c1.748,0.353,3.566,0.296,5.333,0.276c3.17-0.038,6.491-0.384,9.196-2.207&#10;&#9;&#9;c0.716-0.485,1.428-1.069,2.037-1.699c1.189-1.226,2.107-2.646,2.968-4.107c0.675-1.106,1.284-2.257,1.831-3.435&#10;&#9;&#9;c1.071-2.289,0.662-5.483,0.522-7.95C149.849,34.791,149.818,34.541,149.771,34.296 M125.412,33.999&#10;&#9;&#9;c0.232-1.541,0.643-3.058,1.138-4.453c0.698-1.963,3.133-4.624,5.454-4.44c0.867,0.071,1.78,0.278,2.502,0.787&#10;&#9;&#9;c0.762,0.539,1.354,1.276,2.038,1.912c1.706,1.599,2.234,3.555,2.656,5.767c0.238,1.311,0.627,2.618,0.527,3.958&#10;&#9;&#9;c-0.277,3.656-1.43,9.001-5.478,10.257c-2.238,0.694-4.315-1.188-5.669-2.708c-1.57-1.789-2.824-3.826-3.207-6.208&#10;&#9;&#9;C125.116,37.302,125.166,35.636,125.412,33.999"/><path d="M193.548,47.37c-0.585-0.426-1.207-0.821-1.491-1.527c-0.52-1.257-0.342-2.705-0.369-4.031&#10;&#9;&#9;c-0.063-3.378,0.643-6.769,0.435-10.12c-0.102-1.618,0.121-3.365-0.22-4.958c-0.846-3.943-4.49-7.567-8.379-8.585&#10;&#9;&#9;c-1.697-0.446-3.901-0.289-5.592,0.113c-1.496,0.358-2.892,1.012-4.259,1.716c-1.482,0.769-1.724,0.618-2.867-0.49&#10;&#9;&#9;c-1.151-1.132-1.767-1.628-3.404-1.232c-1.135,0.276-2.283,0.622-3.333,1.157c-0.971,0.498-1.804,1.207-2.793,1.668&#10;&#9;&#9;c-1.661,0.767-2.593,2.276-2.434,4.125c0.082,1.065,1.622,1.83,2.188,2.698c0.85,1.291,1.141,2.712,1.105,4.233&#10;&#9;&#9;c-0.03,1.731-0.099,3.491-0.199,5.215c-0.124,2.208-0.084,4.328-0.076,6.523c0.008,1.113,0.076,2.005-0.464,3.006&#10;&#9;&#9;c-0.449,0.806-0.951,1.579-1.404,2.392c-2.245,3.937,2.937,5.087,5.821,4.974c1.445-0.058,2.879-0.378,4.32-0.408&#10;&#9;&#9;c1.697-0.045,3.962-0.328,4.747-2.062c0.567-1.272,0.435-2.944-0.687-3.864c-1.112-0.924-2.804-0.628-3.389-2.244&#10;&#9;&#9;c-0.321-0.913-0.441-1.982-0.461-2.958c-0.078-3.497,0.687-6.937,0.582-10.466c-0.035-0.886-0.328-1.812,0.112-2.655&#10;&#9;&#9;c0.452-0.855,1.303-1.27,2.031-1.829c1.15-0.868,2.408-1.661,3.895-1.547c1.154,0.086,2.295,0.627,3.118,1.434&#10;&#9;&#9;c1.049,1.025,1.178,2.546,1.271,3.931c0.136,1.874,0.32,3.748,0.295,5.623c-0.027,2.252-0.246,4.471-0.126,6.729&#10;&#9;&#9;c0.076,1.415,0.043,3.251-1.63,3.718c-1.287,0.364-2.529,1.202-2.382,2.667c0.175,1.769,1.752,3.383,3.478,3.685&#10;&#9;&#9;c2.074,0.367,4.199-0.389,6.283-0.137c1.744,0.207,3.905,0.428,5.566-0.296c0.88-0.384,1.521-1.226,1.698-2.182&#10;&#9;&#9;c0.178-0.932,0.521-1.996,0.063-2.902C194.359,48.013,193.963,47.687,193.548,47.37"/></g></svg>